<svg xmlns="http://www.w3.org/2000/svg" xmlns:xlink="http://www.w3.org/1999/xlink" style="vertical-align:-2.505ex" width="56.252ex" height="6.134ex" viewBox="0 -1562.8 24219.4 2641.1"><defs><path id="h" stroke-width="1" d="M56 347q0 13 14 20h637q15-8 15-20 0-11-14-19l-318-1H72q-16 5-16 20zm0-194q0 15 16 20h636q14-10 14-20 0-13-15-20H70q-14 7-14 20z"/><path id="a" stroke-width="1" d="M366 683q1 0 72 5t73 6q12 0 12-8 0-7-73-302T375 83t-1-15q0-42 28-42 9 1 20 9 21 20 41 96 6 20 10 21 2 1 10 1h8q15 0 15-8 0-5-3-16-13-50-30-81T445 8 417-8q-8-2-24-2-34 0-57 15t-30 31l-6 15q-1 1-4-1l-4-4q-59-56-120-56-55 0-97 40T33 157q0 48 20 98t48 86q47 57 94 79t85 22q56 0 84-42 5-6 5-4 1 4 27 109t28 111q0 13-7 16t-39 5h-21q-6 6-6 8t2 19q5 19 13 19zm-14-357q-23 79-75 79-35 0-67-31t-50-81q-29-79-41-164v-11q0-8-1-12 0-45 18-62t43-18q54 0 111 72l8 11 54 217z"/><path id="c" stroke-width="1" d="M94 250q0 69 10 131t23 107 37 88 38 67 42 52 33 34 25 21h17q14 0 14-9 0-3-17-21t-41-53-49-86-42-138-17-193 17-192 41-139 49-86 42-53 17-21q0-9-15-9h-16l-28 24q-94 85-137 212T94 250z"/><path id="d" stroke-width="1" d="M208 74q0-24 46-28 18 0 18-11 0-1-2-13-3-14-6-18t-13-4h-12q-10 0-34 1t-64 1Q70 2 50 0h-8q-7 7-7 11 2 27 13 35h14q70 3 102 50 6 6 181 305t178 303q7 12 24 12h25q6-9 6-10l28-323q28-323 30-326 5-11 65-11 25 0 25-10 0-2-3-14-3-15-5-18t-14-4h-14q-11 0-39 1t-73 1q-94 0-123-2h-12q-6 6-6 9t2 18q4 13 6 16l4 3h20q54 3 64 17l-12 150H283l-34-58q-41-69-41-81zm308 186q0 11-12 156t-14 146l-27-43q-16-27-63-107l-90-152 103-1q103 0 103 1z"/><path id="e" stroke-width="1" d="M78 35v25l16 43 43 18q28 0 50-25t23-88q0-35-9-68t-21-57-26-41-24-27-13-9q-4 0-13 9t-9 13q0 4 11 16t25 30 26 50 16 73V9l-1-1q-2-1-5-2t-6-3-9-2-12-1q-27 0-44 17z"/><path id="f" stroke-width="1" d="M231 637q-27 0-32 1t-5 11q0 27 11 33 1 1 130 1 259 0 273-2 63-10 105-45t43-92q0-64-58-115t-133-69l-10-3q64-9 105-46t42-92q0-73-72-141T453 1q-7-1-211-1Q42 0 39 2q-4 3-4 8 0 7 2 14 5 19 10 21 4 1 15 1h6q27 0 60 3 14 3 19 12 3 4 72 278t69 289q0 7-57 9zm418-93q0 30-15 56t-49 34q-7 2-92 3h-42q-22 0-35-1h-13q-15-1-19-10-2-4-32-120 0-3-1-6l-31-126h81q81 0 93 2 60 10 107 58t48 110zm-54-315q0 44-23 73t-60 34q-6 1-83 1-118 0-119-1 0-2-17-73t-35-141l-18-70q0-4 12-4t81-2q89 0 96 1 62 7 114 58t52 124z"/><path id="g" stroke-width="1" d="M60 749l4 1h22l28-24q94-85 137-212t43-264q0-68-10-131T261 12t-37-88-38-67-41-51-32-33-23-19l-4-4H63q-3 0-5 3t-3 9q1 1 11 13Q221-64 221 250T66 725q-10 12-11 13 0 8 5 11z"/><path id="b" stroke-width="1" d="M297 596q0 31 21 48t43 17q17 0 28-10t14-28q0-28-19-47t-44-19q-18 0-30 10t-13 29zm-9-220q0 29-26 29-22 0-42-12t-35-31-24-37-17-32l-7-14q-2-1-16-1h-14q-6 6-6 8t4 13q21 49 59 92t88 50h8q7 0 12 1 24-1 44-10 25-14 38-31t13-53v-16l-49-199Q267-67 264-75q-18-50-70-89T75-204q-50 0-68 21t-19 46q0 27 19 46t46 20q17 0 29-10t13-31q0-36-32-55 6-1 14-1 34 0 62 28t43 66l11 42q11 43 26 104t32 125 27 111 11 57q0 7-1 11z"/><path id="i" stroke-width="1" d="M213 578l-13-5q-14-5-40-10t-58-7H83v46h19q47 2 87 15t56 24 28 22q2 3 12 3 9 0 17-6V361l1-300q7-7 12-9t24-4 62-2h26V0h-11q-21 3-159 3-136 0-157-3H88v46h64q16 0 25 1t16 3 8 2 6 5 6 4v517z"/><path id="j" stroke-width="1" d="M84 237v13l14 20h581q15-8 15-20t-15-20H98q-14 7-14 20z"/><path id="k" stroke-width="1" d="M447 625q0 12-93 12h-25q-6 5-6 8t2 19q4 13 10 19h17q41-2 146-2h70q27 0 37 1t14 0q14 0 14-10 0-2-3-14-4-16-7-18t-19-3q-52 0-59-14-4-13-62-247-63-248-64-249-22-63-86-106T195-22q-58 0-98 30T57 88q0 42 23 64t52 22q45 0 50-44 0-32-18-50t-41-24q-8-2-8-3t7-9q26-29 75-29 38 0 74 32t53 83q4 12 63 250t60 245z"/><path id="l" stroke-width="1" d="M139-249h-2q-12 0-18 14v486l1 486q10 13 19 13 13 0 20-15v-970q-8-14-18-14h-2z"/><path id="m" stroke-width="1" d="M591 598h1q12 0 19-15V376v-80q-1-134-5-148-1-2-1-3-19-77-98-122T333-22q-65 0-124 21T106 66 56 173q-1 7-1 211l1 201q10 13 19 13 10 0 20-13V378l1-206 2-10q14-67 83-105t151-39q83 0 155 40t83 117q1 5 1 208v200q8 15 20 15z"/><path id="n" stroke-width="1" d="M88-21H75L55-7v287q1 134 5 148 1 2 1 3 16 69 91 118t180 49q111 0 190-54t88-139q1-6 1-211V-7q-7-15-20-15-9 0-19 13l-2 414q-7 28-14 44t-27 36q-31 34-84 53t-111 20q-83 0-155-40T96 401q-1-5-1-208V-7q-7-14-20-14z"/><path id="o" stroke-width="1" d="M51 0q-5 4-5 7 0 2 169 350t173 352q3 7 28 7 23 0 28-7 3-4 172-352T786 7q0-3-5-7H51zm456 344L384 596 137 92l246-1h247q0 2-123 253z"/></defs><g fill="currentColor" stroke="currentColor" stroke-width="0" transform="scale(1 -1)"><use xlink:href="#a"/><use x="736" y="-213" transform="scale(.707)" xlink:href="#b"/><use x="912" xlink:href="#c"/><use x="1301" xlink:href="#d"/><use x="2052" xlink:href="#e"/><use x="2497" xlink:href="#f"/><use x="3256" xlink:href="#g"/><use x="3924" xlink:href="#h"/><use x="4980" xlink:href="#i"/><use x="5703" xlink:href="#j"/><use x="6703" xlink:href="#k"/><use x="7337" xlink:href="#c"/><use x="7726" xlink:href="#d"/><use x="8477" xlink:href="#e"/><use x="8922" xlink:href="#f"/><use x="9682" xlink:href="#g"/><use x="10349" xlink:href="#h"/><path stroke="none" d="M11524 220h7700v60h-7700z"/><g transform="translate(11584 724)"><use xlink:href="#l"/><use x="278" xlink:href="#d"/><use x="1251" xlink:href="#m"/><use x="2140" xlink:href="#f"/><use x="2900" xlink:href="#l"/><use x="3401" xlink:href="#j"/><g transform="translate(4401)"><use xlink:href="#l"/><use x="278" xlink:href="#d"/><use x="1251" xlink:href="#n"/><use x="2140" xlink:href="#f"/><use x="2900" xlink:href="#l"/></g></g><g transform="translate(13784 -726)"><use xlink:href="#l"/><use x="278" xlink:href="#d"/><use x="1251" xlink:href="#m"/><use x="2140" xlink:href="#f"/><use x="2900" xlink:href="#l"/></g><use x="19624" xlink:href="#h"/><g><path stroke="none" d="M20799 220h3298v60h-3298z"/><g transform="translate(21276 676)"><use xlink:href="#d"/><use x="750" xlink:href="#o"/><use x="1584" xlink:href="#f"/></g><g transform="translate(20859 -726)"><use xlink:href="#l"/><use x="278" xlink:href="#d"/><use x="1251" xlink:href="#m"/><use x="2140" xlink:href="#f"/><use x="2900" xlink:href="#l"/></g></g></g></svg>